solid OpenSCAD_Model
  facet normal -1 0 0
    outer loop
      vertex 0 0 -0.1
      vertex 0 120 1.9
      vertex 0 120 -0.1
    endloop
  endfacet
  facet normal -1 -0 0
    outer loop
      vertex 0 120 1.9
      vertex 0 0 -0.1
      vertex 0 0 1.9
    endloop
  endfacet
  facet normal -0 0 1
    outer loop
      vertex 3 77 1.9
      vertex 9 71 1.9
      vertex 9 77 1.9
    endloop
  endfacet
  facet normal 0 0 1
    outer loop
      vertex 9 71 1.9
      vertex 5.8 47 1.9
      vertex 8.97782 38.6883 1.9
    endloop
  endfacet
  facet normal 0 0 1
    outer loop
      vertex 8.97782 38.6883 1.9
      vertex 5.8 47 1.9
      vertex 7.71885 37.2901 1.9
    endloop
  endfacet
  facet normal 0 0 1
    outer loop
      vertex 7.71885 37.2901 1.9
      vertex 5.8 47 1.9
      vertex 6.77809 35.6606 1.9
    endloop
  endfacet
  facet normal 0 0 1
    outer loop
      vertex 6.77809 35.6606 1.9
      vertex 5.8 47 1.9
      vertex 6.19667 33.8712 1.9
    endloop
  endfacet
  facet normal 0 0 1
    outer loop
      vertex 6.19667 33.8712 1.9
      vertex 5.8 47 1.9
      vertex 6 32 1.9
    endloop
  endfacet
  facet normal 0 -0 1
    outer loop
      vertex 3.6 47 1.9
      vertex 9 71 1.9
      vertex 3 77 1.9
    endloop
  endfacet
  facet normal 0 0 1
    outer loop
      vertex 0 0 1.9
      vertex 3.6 47 1.9
      vertex 3 77 1.9
    endloop
  endfacet
  facet normal 0 0 1
    outer loop
      vertex 9 71 1.9
      vertex 3.6 47 1.9
      vertex 5.8 47 1.9
    endloop
  endfacet
  facet normal 0 0 1
    outer loop
      vertex 30 0 1.9
      vertex 19.8907 11.5396 1.9
      vertex 20 10.5 1.9
    endloop
  endfacet
  facet normal 0 0 1
    outer loop
      vertex 26.4 27 1.9
      vertex 19.5677 12.5337 1.9
      vertex 19.8907 11.5396 1.9
    endloop
  endfacet
  facet normal 0 0 1
    outer loop
      vertex 19.0451 13.4389 1.9
      vertex 21.0222 25.3117 1.9
      vertex 19.5 24.2058 1.9
    endloop
  endfacet
  facet normal 0 0 1
    outer loop
      vertex 26.4 27 1.9
      vertex 19.0451 13.4389 1.9
      vertex 19.5677 12.5337 1.9
    endloop
  endfacet
  facet normal 0 0 1
    outer loop
      vertex 19.5 24.2058 1.9
      vertex 18.3457 14.2157 1.9
      vertex 19.0451 13.4389 1.9
    endloop
  endfacet
  facet normal 0 0 1
    outer loop
      vertex 17.5 14.8301 1.9
      vertex 19.5 24.2058 1.9
      vertex 17.7812 23.4405 1.9
    endloop
  endfacet
  facet normal 0 0 1
    outer loop
      vertex 19.5 24.2058 1.9
      vertex 17.5 14.8301 1.9
      vertex 18.3457 14.2157 1.9
    endloop
  endfacet
  facet normal 0 0 1
    outer loop
      vertex 17.7812 23.4405 1.9
      vertex 16.5451 15.2553 1.9
      vertex 17.5 14.8301 1.9
    endloop
  endfacet
  facet normal -0 0 1
    outer loop
      vertex 15.9408 23.0493 1.9
      vertex 16.5451 15.2553 1.9
      vertex 17.7812 23.4405 1.9
    endloop
  endfacet
  facet normal 0 0 1
    outer loop
      vertex 15.9408 23.0493 1.9
      vertex 15.5226 15.4726 1.9
      vertex 16.5451 15.2553 1.9
    endloop
  endfacet
  facet normal 0 0 1
    outer loop
      vertex 15.9408 23.0493 1.9
      vertex 14.4774 15.4726 1.9
      vertex 15.5226 15.4726 1.9
    endloop
  endfacet
  facet normal -0 0 1
    outer loop
      vertex 14.0592 23.0493 1.9
      vertex 14.4774 15.4726 1.9
      vertex 15.9408 23.0493 1.9
    endloop
  endfacet
  facet normal 0 0 1
    outer loop
      vertex 14.0592 23.0493 1.9
      vertex 13.4549 15.2553 1.9
      vertex 14.4774 15.4726 1.9
    endloop
  endfacet
  facet normal 0 0 1
    outer loop
      vertex 12.2188 23.4405 1.9
      vertex 13.4549 15.2553 1.9
      vertex 14.0592 23.0493 1.9
    endloop
  endfacet
  facet normal 0 0 1
    outer loop
      vertex 13.4549 15.2553 1.9
      vertex 12.2188 23.4405 1.9
      vertex 12.5 14.8301 1.9
    endloop
  endfacet
  facet normal 0 0 1
    outer loop
      vertex 10.5 24.2058 1.9
      vertex 12.5 14.8301 1.9
      vertex 12.2188 23.4405 1.9
    endloop
  endfacet
  facet normal 0 0 1
    outer loop
      vertex 12.5 14.8301 1.9
      vertex 10.5 24.2058 1.9
      vertex 11.6543 14.2157 1.9
    endloop
  endfacet
  facet normal 0 0 1
    outer loop
      vertex 11.6543 14.2157 1.9
      vertex 10.5 24.2058 1.9
      vertex 10.9549 13.4389 1.9
    endloop
  endfacet
  facet normal 0 0 1
    outer loop
      vertex 8.97782 25.3117 1.9
      vertex 10.9549 13.4389 1.9
      vertex 10.5 24.2058 1.9
    endloop
  endfacet
  facet normal 0 0 1
    outer loop
      vertex 3.6 27 1.9
      vertex 10.9549 13.4389 1.9
      vertex 8.97782 25.3117 1.9
    endloop
  endfacet
  facet normal 0 0 1
    outer loop
      vertex 10.9549 13.4389 1.9
      vertex 3.6 27 1.9
      vertex 10.4323 12.5337 1.9
    endloop
  endfacet
  facet normal 0 0 1
    outer loop
      vertex 10.4323 12.5337 1.9
      vertex 3.6 27 1.9
      vertex 10.1093 11.5396 1.9
    endloop
  endfacet
  facet normal -0 0 1
    outer loop
      vertex 19.8907 55.0396 1.9
      vertex 26.4 47 1.9
      vertex 27 71 1.9
    endloop
  endfacet
  facet normal 0 0 1
    outer loop
      vertex 24.2 47 1.9
      vertex 24 32 1.9
      vertex 24.2 27 1.9
    endloop
  endfacet
  facet normal 0 0 1
    outer loop
      vertex 24.2 47 1.9
      vertex 23.8033 33.8712 1.9
      vertex 24 32 1.9
    endloop
  endfacet
  facet normal 0 0 1
    outer loop
      vertex 24.2 47 1.9
      vertex 23.2219 35.6606 1.9
      vertex 23.8033 33.8712 1.9
    endloop
  endfacet
  facet normal 0 0 1
    outer loop
      vertex 24.2 47 1.9
      vertex 22.2812 37.2901 1.9
      vertex 23.2219 35.6606 1.9
    endloop
  endfacet
  facet normal -0 -0 1
    outer loop
      vertex 20 54 1.9
      vertex 26.4 47 1.9
      vertex 19.8907 55.0396 1.9
    endloop
  endfacet
  facet normal -0 0 1
    outer loop
      vertex 19.5677 51.9663 1.9
      vertex 24.2 47 1.9
      vertex 19.8907 52.9604 1.9
    endloop
  endfacet
  facet normal 0 0 1
    outer loop
      vertex 26.4 47 1.9
      vertex 19.8907 52.9604 1.9
      vertex 24.2 47 1.9
    endloop
  endfacet
  facet normal -0 0 1
    outer loop
      vertex 19.8907 52.9604 1.9
      vertex 26.4 47 1.9
      vertex 20 54 1.9
    endloop
  endfacet
  facet normal 0 0 1
    outer loop
      vertex 27 71 1.9
      vertex 19.5677 56.0337 1.9
      vertex 19.8907 55.0396 1.9
    endloop
  endfacet
  facet normal 0 0 1
    outer loop
      vertex 27 71 1.9
      vertex 19.0451 56.9389 1.9
      vertex 19.5677 56.0337 1.9
    endloop
  endfacet
  facet normal 0 0 1
    outer loop
      vertex 27 71 1.9
      vertex 18.3457 57.7157 1.9
      vertex 19.0451 56.9389 1.9
    endloop
  endfacet
  facet normal 0 0 1
    outer loop
      vertex 27 71 1.9
      vertex 17.5 58.3301 1.9
      vertex 18.3457 57.7157 1.9
    endloop
  endfacet
  facet normal 0 0 1
    outer loop
      vertex 27 71 1.9
      vertex 16.5451 58.7553 1.9
      vertex 17.5 58.3301 1.9
    endloop
  endfacet
  facet normal 0 0 1
    outer loop
      vertex 27 71 1.9
      vertex 15.5226 58.9726 1.9
      vertex 16.5451 58.7553 1.9
    endloop
  endfacet
  facet normal -0 0 1
    outer loop
      vertex 9 71 1.9
      vertex 15.5226 58.9726 1.9
      vertex 27 71 1.9
    endloop
  endfacet
  facet normal 0 0 1
    outer loop
      vertex 15.5226 58.9726 1.9
      vertex 9 71 1.9
      vertex 14.4774 58.9726 1.9
    endloop
  endfacet
  facet normal 0 0 1
    outer loop
      vertex 14.4774 58.9726 1.9
      vertex 9 71 1.9
      vertex 13.4549 58.7553 1.9
    endloop
  endfacet
  facet normal 0 0 1
    outer loop
      vertex 13.4549 58.7553 1.9
      vertex 9 71 1.9
      vertex 12.5 58.3301 1.9
    endloop
  endfacet
  facet normal 0 0 1
    outer loop
      vertex 10.1093 55.0396 1.9
      vertex 9 71 1.9
      vertex 10 54 1.9
    endloop
  endfacet
  facet normal 0 0 1
    outer loop
      vertex 10.4323 56.0337 1.9
      vertex 9 71 1.9
      vertex 10.1093 55.0396 1.9
    endloop
  endfacet
  facet normal 0 0 1
    outer loop
      vertex 10.9549 56.9389 1.9
      vertex 9 71 1.9
      vertex 10.4323 56.0337 1.9
    endloop
  endfacet
  facet normal 0 0 1
    outer loop
      vertex 11.6543 57.7157 1.9
      vertex 9 71 1.9
      vertex 10.9549 56.9389 1.9
    endloop
  endfacet
  facet normal 0 0 1
    outer loop
      vertex 12.5 58.3301 1.9
      vertex 9 71 1.9
      vertex 11.6543 57.7157 1.9
    endloop
  endfacet
  facet normal 0 0 1
    outer loop
      vertex 27 71 1.9
      vertex 30 120 1.9
      vertex 27 111 1.9
    endloop
  endfacet
  facet normal 0 0 1
    outer loop
      vertex 30 120 1.9
      vertex 21.1 117 1.9
      vertex 27 111 1.9
    endloop
  endfacet
  facet normal -0 0 1
    outer loop
      vertex 0 120 1.9
      vertex 21.1 117 1.9
      vertex 30 120 1.9
    endloop
  endfacet
  facet normal 0 0 1
    outer loop
      vertex 3 117 1.9
      vertex 0 120 1.9
      vertex 3 77 1.9
    endloop
  endfacet
  facet normal 0 0 1
    outer loop
      vertex 21.1 117 1.9
      vertex 0 120 1.9
      vertex 3 117 1.9
    endloop
  endfacet
  facet normal 0 0 1
    outer loop
      vertex 30 120 1.9
      vertex 27 71 1.9
      vertex 30 0 1.9
    endloop
  endfacet
  facet normal -0 0 1
    outer loop
      vertex 26.4 47 1.9
      vertex 30 0 1.9
      vertex 27 71 1.9
    endloop
  endfacet
  facet normal -0 0 1
    outer loop
      vertex 26.4 27 1.9
      vertex 30 0 1.9
      vertex 26.4 47 1.9
    endloop
  endfacet
  facet normal 0 0 1
    outer loop
      vertex 21.0222 25.3117 1.9
      vertex 26.4 27 1.9
      vertex 24.2 27 1.9
    endloop
  endfacet
  facet normal -0 0 1
    outer loop
      vertex 23.8033 30.1288 1.9
      vertex 24.2 27 1.9
      vertex 24 32 1.9
    endloop
  endfacet
  facet normal -0 0 1
    outer loop
      vertex 23.2219 28.3394 1.9
      vertex 24.2 27 1.9
      vertex 23.8033 30.1288 1.9
    endloop
  endfacet
  facet normal 0 0 1
    outer loop
      vertex 22.2812 26.7099 1.9
      vertex 24.2 27 1.9
      vertex 23.2219 28.3394 1.9
    endloop
  endfacet
  facet normal 0 0 1
    outer loop
      vertex 21.0222 25.3117 1.9
      vertex 24.2 27 1.9
      vertex 22.2812 26.7099 1.9
    endloop
  endfacet
  facet normal 0 0 1
    outer loop
      vertex 19.0451 13.4389 1.9
      vertex 26.4 27 1.9
      vertex 21.0222 25.3117 1.9
    endloop
  endfacet
  facet normal -0 0 1
    outer loop
      vertex 19.8907 11.5396 1.9
      vertex 30 0 1.9
      vertex 26.4 27 1.9
    endloop
  endfacet
  facet normal -0 0 1
    outer loop
      vertex 19.8907 9.46044 1.9
      vertex 30 0 1.9
      vertex 20 10.5 1.9
    endloop
  endfacet
  facet normal -0 0 1
    outer loop
      vertex 19.5677 8.46632 1.9
      vertex 30 0 1.9
      vertex 19.8907 9.46044 1.9
    endloop
  endfacet
  facet normal -0 0 1
    outer loop
      vertex 19.0451 7.56107 1.9
      vertex 30 0 1.9
      vertex 19.5677 8.46632 1.9
    endloop
  endfacet
  facet normal -0 0 1
    outer loop
      vertex 18.3457 6.78428 1.9
      vertex 30 0 1.9
      vertex 19.0451 7.56107 1.9
    endloop
  endfacet
  facet normal -0 0 1
    outer loop
      vertex 17.5 6.16987 1.9
      vertex 30 0 1.9
      vertex 18.3457 6.78428 1.9
    endloop
  endfacet
  facet normal -0 0 1
    outer loop
      vertex 16.5451 5.74472 1.9
      vertex 30 0 1.9
      vertex 17.5 6.16987 1.9
    endloop
  endfacet
  facet normal -0 0 1
    outer loop
      vertex 15.5226 5.52739 1.9
      vertex 30 0 1.9
      vertex 16.5451 5.74472 1.9
    endloop
  endfacet
  facet normal -0 0 1
    outer loop
      vertex 14.4774 5.52739 1.9
      vertex 30 0 1.9
      vertex 15.5226 5.52739 1.9
    endloop
  endfacet
  facet normal 0 0 1
    outer loop
      vertex 0 0 1.9
      vertex 14.4774 5.52739 1.9
      vertex 13.4549 5.74472 1.9
    endloop
  endfacet
  facet normal 0 0 1
    outer loop
      vertex 5.8 27 1.9
      vertex 8.97782 25.3117 1.9
      vertex 7.71885 26.7099 1.9
    endloop
  endfacet
  facet normal -0 0 1
    outer loop
      vertex 3.6 27 1.9
      vertex 8.97782 25.3117 1.9
      vertex 5.8 27 1.9
    endloop
  endfacet
  facet normal -0 0 1
    outer loop
      vertex 5.8 27 1.9
      vertex 7.71885 26.7099 1.9
      vertex 6.77809 28.3394 1.9
    endloop
  endfacet
  facet normal 0 0 1
    outer loop
      vertex 5.8 27 1.9
      vertex 6.77809 28.3394 1.9
      vertex 6.19667 30.1288 1.9
    endloop
  endfacet
  facet normal 0 0 1
    outer loop
      vertex 5.8 27 1.9
      vertex 6 32 1.9
      vertex 5.8 47 1.9
    endloop
  endfacet
  facet normal 0 0 1
    outer loop
      vertex 5.8 27 1.9
      vertex 6.19667 30.1288 1.9
      vertex 6 32 1.9
    endloop
  endfacet
  facet normal 0 0 1
    outer loop
      vertex 0 0 1.9
      vertex 10.1093 11.5396 1.9
      vertex 3.6 27 1.9
    endloop
  endfacet
  facet normal 0 0 1
    outer loop
      vertex 10.1093 11.5396 1.9
      vertex 0 0 1.9
      vertex 10 10.5 1.9
    endloop
  endfacet
  facet normal 0 0 1
    outer loop
      vertex 10 10.5 1.9
      vertex 0 0 1.9
      vertex 10.1093 9.46044 1.9
    endloop
  endfacet
  facet normal 0 0 1
    outer loop
      vertex 0 0 1.9
      vertex 3 77 1.9
      vertex 0 120 1.9
    endloop
  endfacet
  facet normal 0 0 1
    outer loop
      vertex 14.4774 5.52739 1.9
      vertex 0 0 1.9
      vertex 30 0 1.9
    endloop
  endfacet
  facet normal 0 0 1
    outer loop
      vertex 12.5 6.16987 1.9
      vertex 0 0 1.9
      vertex 13.4549 5.74472 1.9
    endloop
  endfacet
  facet normal 0 0 1
    outer loop
      vertex 11.6543 6.78428 1.9
      vertex 0 0 1.9
      vertex 12.5 6.16987 1.9
    endloop
  endfacet
  facet normal 0 0 1
    outer loop
      vertex 10.9549 7.56107 1.9
      vertex 0 0 1.9
      vertex 11.6543 6.78428 1.9
    endloop
  endfacet
  facet normal 0 0 1
    outer loop
      vertex 10.4323 8.46632 1.9
      vertex 0 0 1.9
      vertex 10.9549 7.56107 1.9
    endloop
  endfacet
  facet normal 0 0 1
    outer loop
      vertex 10.1093 9.46044 1.9
      vertex 0 0 1.9
      vertex 10.4323 8.46632 1.9
    endloop
  endfacet
  facet normal 0 0 1
    outer loop
      vertex 3.6 47 1.9
      vertex 0 0 1.9
      vertex 3.6 27 1.9
    endloop
  endfacet
  facet normal 0 0 1
    outer loop
      vertex 27 111 1.9
      vertex 21.1 117 1.9
      vertex 21.1 111 1.9
    endloop
  endfacet
  facet normal -0 0 1
    outer loop
      vertex 19.0451 51.0611 1.9
      vertex 24.2 47 1.9
      vertex 19.5677 51.9663 1.9
    endloop
  endfacet
  facet normal 0 0 1
    outer loop
      vertex 24.2 47 1.9
      vertex 21.0222 38.6883 1.9
      vertex 22.2812 37.2901 1.9
    endloop
  endfacet
  facet normal -0 0 1
    outer loop
      vertex 18.3457 50.2843 1.9
      vertex 24.2 47 1.9
      vertex 19.0451 51.0611 1.9
    endloop
  endfacet
  facet normal 0 0 1
    outer loop
      vertex 24.2 47 1.9
      vertex 19.5 39.7942 1.9
      vertex 21.0222 38.6883 1.9
    endloop
  endfacet
  facet normal -0 0 1
    outer loop
      vertex 17.5 49.6699 1.9
      vertex 24.2 47 1.9
      vertex 18.3457 50.2843 1.9
    endloop
  endfacet
  facet normal 0 -0 1
    outer loop
      vertex 17.7812 40.5595 1.9
      vertex 24.2 47 1.9
      vertex 17.5 49.6699 1.9
    endloop
  endfacet
  facet normal 0 0 1
    outer loop
      vertex 24.2 47 1.9
      vertex 17.7812 40.5595 1.9
      vertex 19.5 39.7942 1.9
    endloop
  endfacet
  facet normal -0 0 1
    outer loop
      vertex 16.5451 49.2447 1.9
      vertex 17.7812 40.5595 1.9
      vertex 17.5 49.6699 1.9
    endloop
  endfacet
  facet normal 0 0 1
    outer loop
      vertex 16.5451 49.2447 1.9
      vertex 15.9408 40.9507 1.9
      vertex 17.7812 40.5595 1.9
    endloop
  endfacet
  facet normal -0 0 1
    outer loop
      vertex 15.5226 49.0274 1.9
      vertex 15.9408 40.9507 1.9
      vertex 16.5451 49.2447 1.9
    endloop
  endfacet
  facet normal -0 0 1
    outer loop
      vertex 14.4774 49.0274 1.9
      vertex 15.9408 40.9507 1.9
      vertex 15.5226 49.0274 1.9
    endloop
  endfacet
  facet normal 0 0 1
    outer loop
      vertex 14.4774 49.0274 1.9
      vertex 14.0592 40.9507 1.9
      vertex 15.9408 40.9507 1.9
    endloop
  endfacet
  facet normal 0 0 1
    outer loop
      vertex 13.4549 49.2447 1.9
      vertex 14.0592 40.9507 1.9
      vertex 14.4774 49.0274 1.9
    endloop
  endfacet
  facet normal 0 0 1
    outer loop
      vertex 12.2188 40.5595 1.9
      vertex 13.4549 49.2447 1.9
      vertex 12.5 49.6699 1.9
    endloop
  endfacet
  facet normal 0 0 1
    outer loop
      vertex 13.4549 49.2447 1.9
      vertex 12.2188 40.5595 1.9
      vertex 14.0592 40.9507 1.9
    endloop
  endfacet
  facet normal 0 0 1
    outer loop
      vertex 10.5 39.7942 1.9
      vertex 12.5 49.6699 1.9
      vertex 11.6543 50.2843 1.9
    endloop
  endfacet
  facet normal 0 0 1
    outer loop
      vertex 10.5 39.7942 1.9
      vertex 11.6543 50.2843 1.9
      vertex 10.9549 51.0611 1.9
    endloop
  endfacet
  facet normal 0 0 1
    outer loop
      vertex 12.5 49.6699 1.9
      vertex 10.5 39.7942 1.9
      vertex 12.2188 40.5595 1.9
    endloop
  endfacet
  facet normal 0 0 1
    outer loop
      vertex 8.97782 38.6883 1.9
      vertex 10.9549 51.0611 1.9
      vertex 10.4323 51.9663 1.9
    endloop
  endfacet
  facet normal 0 0 1
    outer loop
      vertex 8.97782 38.6883 1.9
      vertex 10.4323 51.9663 1.9
      vertex 10.1093 52.9604 1.9
    endloop
  endfacet
  facet normal 0 0 1
    outer loop
      vertex 8.97782 38.6883 1.9
      vertex 10.1093 52.9604 1.9
      vertex 10 54 1.9
    endloop
  endfacet
  facet normal 0 0 1
    outer loop
      vertex 8.97782 38.6883 1.9
      vertex 10 54 1.9
      vertex 9 71 1.9
    endloop
  endfacet
  facet normal 0 0 1
    outer loop
      vertex 10.9549 51.0611 1.9
      vertex 8.97782 38.6883 1.9
      vertex 10.5 39.7942 1.9
    endloop
  endfacet
  facet normal 1 -0 0
    outer loop
      vertex 30 0 1.9
      vertex 30 120 -0.1
      vertex 30 120 1.9
    endloop
  endfacet
  facet normal 1 0 0
    outer loop
      vertex 30 120 -0.1
      vertex 30 0 1.9
      vertex 30 0 -0.1
    endloop
  endfacet
  facet normal 0 0 -1
    outer loop
      vertex 26.4 47 -0.1
      vertex 19.8907 52.9604 -0.1
      vertex 20 54 -0.1
    endloop
  endfacet
  facet normal 0 0 -1
    outer loop
      vertex 24.2 47 -0.1
      vertex 19.5677 51.9663 -0.1
      vertex 19.8907 52.9604 -0.1
    endloop
  endfacet
  facet normal 0 0 -1
    outer loop
      vertex 17.7812 40.5595 -0.1
      vertex 24.2 47 -0.1
      vertex 19.5 39.7942 -0.1
    endloop
  endfacet
  facet normal 0 0 -1
    outer loop
      vertex 24.2 47 -0.1
      vertex 19.0451 51.0611 -0.1
      vertex 19.5677 51.9663 -0.1
    endloop
  endfacet
  facet normal 0 0 -1
    outer loop
      vertex 24.2 47 -0.1
      vertex 18.3457 50.2843 -0.1
      vertex 19.0451 51.0611 -0.1
    endloop
  endfacet
  facet normal -0 0 -1
    outer loop
      vertex 24.2 47 -0.1
      vertex 17.7812 40.5595 -0.1
      vertex 17.5 49.6699 -0.1
    endloop
  endfacet
  facet normal 0 0 -1
    outer loop
      vertex 24.2 47 -0.1
      vertex 17.5 49.6699 -0.1
      vertex 18.3457 50.2843 -0.1
    endloop
  endfacet
  facet normal 0 0 -1
    outer loop
      vertex 17.7812 40.5595 -0.1
      vertex 16.5451 49.2447 -0.1
      vertex 17.5 49.6699 -0.1
    endloop
  endfacet
  facet normal 0 0 -1
    outer loop
      vertex 15.9408 40.9507 -0.1
      vertex 16.5451 49.2447 -0.1
      vertex 17.7812 40.5595 -0.1
    endloop
  endfacet
  facet normal 0 0 -1
    outer loop
      vertex 15.9408 40.9507 -0.1
      vertex 15.5226 49.0274 -0.1
      vertex 16.5451 49.2447 -0.1
    endloop
  endfacet
  facet normal 0 0 -1
    outer loop
      vertex 15.9408 40.9507 -0.1
      vertex 14.4774 49.0274 -0.1
      vertex 15.5226 49.0274 -0.1
    endloop
  endfacet
  facet normal 0 0 -1
    outer loop
      vertex 14.0592 40.9507 -0.1
      vertex 14.4774 49.0274 -0.1
      vertex 15.9408 40.9507 -0.1
    endloop
  endfacet
  facet normal 0 0 -1
    outer loop
      vertex 14.0592 40.9507 -0.1
      vertex 13.4549 49.2447 -0.1
      vertex 14.4774 49.0274 -0.1
    endloop
  endfacet
  facet normal 0 0 -1
    outer loop
      vertex 12.2188 40.5595 -0.1
      vertex 13.4549 49.2447 -0.1
      vertex 14.0592 40.9507 -0.1
    endloop
  endfacet
  facet normal -0 0 -1
    outer loop
      vertex 13.4549 49.2447 -0.1
      vertex 12.2188 40.5595 -0.1
      vertex 12.5 49.6699 -0.1
    endloop
  endfacet
  facet normal 0 0 -1
    outer loop
      vertex 5.8 47 -0.1
      vertex 12.5 49.6699 -0.1
      vertex 12.2188 40.5595 -0.1
    endloop
  endfacet
  facet normal -0 0 -1
    outer loop
      vertex 12.5 49.6699 -0.1
      vertex 5.8 47 -0.1
      vertex 11.6543 50.2843 -0.1
    endloop
  endfacet
  facet normal 0 0 -1
    outer loop
      vertex 5.8 47 -0.1
      vertex 12.2188 40.5595 -0.1
      vertex 10.5 39.7942 -0.1
    endloop
  endfacet
  facet normal -0 0 -1
    outer loop
      vertex 11.6543 50.2843 -0.1
      vertex 5.8 47 -0.1
      vertex 10.9549 51.0611 -0.1
    endloop
  endfacet
  facet normal -0 0 -1
    outer loop
      vertex 10.9549 51.0611 -0.1
      vertex 5.8 47 -0.1
      vertex 10.4323 51.9663 -0.1
    endloop
  endfacet
  facet normal -0 0 -1
    outer loop
      vertex 10.4323 51.9663 -0.1
      vertex 5.8 47 -0.1
      vertex 10.1093 52.9604 -0.1
    endloop
  endfacet
  facet normal 0 0 -1
    outer loop
      vertex 3.6 47 -0.1
      vertex 10.1093 52.9604 -0.1
      vertex 5.8 47 -0.1
    endloop
  endfacet
  facet normal 0 0 -1
    outer loop
      vertex 5.8 47 -0.1
      vertex 10.5 39.7942 -0.1
      vertex 8.97782 38.6883 -0.1
    endloop
  endfacet
  facet normal -0 0 -1
    outer loop
      vertex 10.1093 52.9604 -0.1
      vertex 3.6 47 -0.1
      vertex 10 54 -0.1
    endloop
  endfacet
  facet normal 0 0 -1
    outer loop
      vertex 5.8 47 -0.1
      vertex 8.97782 38.6883 -0.1
      vertex 7.71885 37.2901 -0.1
    endloop
  endfacet
  facet normal 0 0 -1
    outer loop
      vertex 5.8 47 -0.1
      vertex 7.71885 37.2901 -0.1
      vertex 6.77809 35.6606 -0.1
    endloop
  endfacet
  facet normal 0 0 -1
    outer loop
      vertex 5.8 47 -0.1
      vertex 6.77809 35.6606 -0.1
      vertex 6.19667 33.8712 -0.1
    endloop
  endfacet
  facet normal 0 0 -1
    outer loop
      vertex 5.8 47 -0.1
      vertex 6.19667 33.8712 -0.1
      vertex 6 32 -0.1
    endloop
  endfacet
  facet normal 0 0 -1
    outer loop
      vertex 5.8 47 -0.1
      vertex 6 32 -0.1
      vertex 5.8 27 -0.1
    endloop
  endfacet
  facet normal -0 0 -1
    outer loop
      vertex 10 54 -0.1
      vertex 3.6 47 -0.1
      vertex 9 71 -0.1
    endloop
  endfacet
  facet normal -0 0 -1
    outer loop
      vertex 9 71 -0.1
      vertex 3.6 47 -0.1
      vertex 3 77 -0.1
    endloop
  endfacet
  facet normal 0 0 -1
    outer loop
      vertex 9 71 -0.1
      vertex 3 77 -0.1
      vertex 9 77 -0.1
    endloop
  endfacet
  facet normal 0 0 -1
    outer loop
      vertex 30 0 -0.1
      vertex 27 71 -0.1
      vertex 30 120 -0.1
    endloop
  endfacet
  facet normal 0 0 -1
    outer loop
      vertex 26.4 47 -0.1
      vertex 30 0 -0.1
      vertex 26.4 27 -0.1
    endloop
  endfacet
  facet normal 0 0 -1
    outer loop
      vertex 19.8907 11.5396 -0.1
      vertex 26.4 27 -0.1
      vertex 30 0 -0.1
    endloop
  endfacet
  facet normal 0 0 -1
    outer loop
      vertex 24.2 27 -0.1
      vertex 24 32 -0.1
      vertex 24.2 47 -0.1
    endloop
  endfacet
  facet normal 0 0 -1
    outer loop
      vertex 24.2 27 -0.1
      vertex 23.8033 30.1288 -0.1
      vertex 24 32 -0.1
    endloop
  endfacet
  facet normal 0 0 -1
    outer loop
      vertex 24.2 27 -0.1
      vertex 23.2219 28.3394 -0.1
      vertex 23.8033 30.1288 -0.1
    endloop
  endfacet
  facet normal 0 0 -1
    outer loop
      vertex 19.5677 12.5337 -0.1
      vertex 26.4 27 -0.1
      vertex 19.8907 11.5396 -0.1
    endloop
  endfacet
  facet normal -0 0 -1
    outer loop
      vertex 24.2 27 -0.1
      vertex 22.2812 26.7099 -0.1
      vertex 23.2219 28.3394 -0.1
    endloop
  endfacet
  facet normal 0 0 -1
    outer loop
      vertex 19.0451 13.4389 -0.1
      vertex 26.4 27 -0.1
      vertex 19.5677 12.5337 -0.1
    endloop
  endfacet
  facet normal 0 0 -1
    outer loop
      vertex 19.8907 11.5396 -0.1
      vertex 30 0 -0.1
      vertex 20 10.5 -0.1
    endloop
  endfacet
  facet normal 0 0 -1
    outer loop
      vertex 30 0 -0.1
      vertex 19.8907 9.46044 -0.1
      vertex 20 10.5 -0.1
    endloop
  endfacet
  facet normal 0 0 -1
    outer loop
      vertex 30 0 -0.1
      vertex 19.5677 8.46632 -0.1
      vertex 19.8907 9.46044 -0.1
    endloop
  endfacet
  facet normal 0 0 -1
    outer loop
      vertex 30 0 -0.1
      vertex 19.0451 7.56107 -0.1
      vertex 19.5677 8.46632 -0.1
    endloop
  endfacet
  facet normal 0 0 -1
    outer loop
      vertex 30 0 -0.1
      vertex 18.3457 6.78428 -0.1
      vertex 19.0451 7.56107 -0.1
    endloop
  endfacet
  facet normal 0 0 -1
    outer loop
      vertex 30 0 -0.1
      vertex 17.5 6.16987 -0.1
      vertex 18.3457 6.78428 -0.1
    endloop
  endfacet
  facet normal 0 0 -1
    outer loop
      vertex 30 0 -0.1
      vertex 16.5451 5.74472 -0.1
      vertex 17.5 6.16987 -0.1
    endloop
  endfacet
  facet normal 0 0 -1
    outer loop
      vertex 30 0 -0.1
      vertex 15.5226 5.52739 -0.1
      vertex 16.5451 5.74472 -0.1
    endloop
  endfacet
  facet normal 0 0 -1
    outer loop
      vertex 30 0 -0.1
      vertex 14.4774 5.52739 -0.1
      vertex 15.5226 5.52739 -0.1
    endloop
  endfacet
  facet normal 0 0 -1
    outer loop
      vertex 0 0 -0.1
      vertex 14.4774 5.52739 -0.1
      vertex 30 0 -0.1
    endloop
  endfacet
  facet normal 0 0 -1
    outer loop
      vertex 10.4323 12.5337 -0.1
      vertex 7.71885 26.7099 -0.1
      vertex 8.97782 25.3117 -0.1
    endloop
  endfacet
  facet normal 0 0 -1
    outer loop
      vertex 0 0 -0.1
      vertex 10 10.5 -0.1
      vertex 10.1093 9.46044 -0.1
    endloop
  endfacet
  facet normal 0 0 -1
    outer loop
      vertex 10.1093 11.5396 -0.1
      vertex 5.8 27 -0.1
      vertex 7.71885 26.7099 -0.1
    endloop
  endfacet
  facet normal 0 0 -1
    outer loop
      vertex 7.71885 26.7099 -0.1
      vertex 5.8 27 -0.1
      vertex 6.77809 28.3394 -0.1
    endloop
  endfacet
  facet normal -0 0 -1
    outer loop
      vertex 6.19667 30.1288 -0.1
      vertex 5.8 27 -0.1
      vertex 6 32 -0.1
    endloop
  endfacet
  facet normal -0 0 -1
    outer loop
      vertex 6.77809 28.3394 -0.1
      vertex 5.8 27 -0.1
      vertex 6.19667 30.1288 -0.1
    endloop
  endfacet
  facet normal 0 0 -1
    outer loop
      vertex 10.1093 11.5396 -0.1
      vertex 3.6 27 -0.1
      vertex 5.8 27 -0.1
    endloop
  endfacet
  facet normal 0 0 -1
    outer loop
      vertex 0 0 -0.1
      vertex 10.1093 9.46044 -0.1
      vertex 10.4323 8.46632 -0.1
    endloop
  endfacet
  facet normal 0 0 -1
    outer loop
      vertex 0 0 -0.1
      vertex 3.6 47 -0.1
      vertex 3.6 27 -0.1
    endloop
  endfacet
  facet normal 0 0 -1
    outer loop
      vertex 0 120 -0.1
      vertex 3 77 -0.1
      vertex 0 0 -0.1
    endloop
  endfacet
  facet normal -0 0 -1
    outer loop
      vertex 3.6 47 -0.1
      vertex 0 0 -0.1
      vertex 3 77 -0.1
    endloop
  endfacet
  facet normal -0 0 -1
    outer loop
      vertex 10.1093 11.5396 -0.1
      vertex 0 0 -0.1
      vertex 3.6 27 -0.1
    endloop
  endfacet
  facet normal -0 0 -1
    outer loop
      vertex 10.9549 7.56107 -0.1
      vertex 0 0 -0.1
      vertex 10.4323 8.46632 -0.1
    endloop
  endfacet
  facet normal -0 0 -1
    outer loop
      vertex 11.6543 6.78428 -0.1
      vertex 0 0 -0.1
      vertex 10.9549 7.56107 -0.1
    endloop
  endfacet
  facet normal -0 0 -1
    outer loop
      vertex 12.5 6.16987 -0.1
      vertex 0 0 -0.1
      vertex 11.6543 6.78428 -0.1
    endloop
  endfacet
  facet normal -0 0 -1
    outer loop
      vertex 13.4549 5.74472 -0.1
      vertex 0 0 -0.1
      vertex 12.5 6.16987 -0.1
    endloop
  endfacet
  facet normal -0 0 -1
    outer loop
      vertex 14.4774 5.52739 -0.1
      vertex 0 0 -0.1
      vertex 13.4549 5.74472 -0.1
    endloop
  endfacet
  facet normal 0 0 -1
    outer loop
      vertex 27 111 -0.1
      vertex 30 120 -0.1
      vertex 27 71 -0.1
    endloop
  endfacet
  facet normal 0 0 -1
    outer loop
      vertex 21.1 117 -0.1
      vertex 27 111 -0.1
      vertex 21.1 111 -0.1
    endloop
  endfacet
  facet normal 0 0 -1
    outer loop
      vertex 27 111 -0.1
      vertex 21.1 117 -0.1
      vertex 30 120 -0.1
    endloop
  endfacet
  facet normal 0 0 -1
    outer loop
      vertex 0 120 -0.1
      vertex 21.1 117 -0.1
      vertex 3 117 -0.1
    endloop
  endfacet
  facet normal 0 0 -1
    outer loop
      vertex 21.1 117 -0.1
      vertex 0 120 -0.1
      vertex 30 120 -0.1
    endloop
  endfacet
  facet normal 0 0 -1
    outer loop
      vertex 3 77 -0.1
      vertex 0 120 -0.1
      vertex 3 117 -0.1
    endloop
  endfacet
  facet normal 0 0 -1
    outer loop
      vertex 30 0 -0.1
      vertex 26.4 47 -0.1
      vertex 27 71 -0.1
    endloop
  endfacet
  facet normal 0 0 -1
    outer loop
      vertex 19.8907 52.9604 -0.1
      vertex 26.4 47 -0.1
      vertex 24.2 47 -0.1
    endloop
  endfacet
  facet normal 0 0 -1
    outer loop
      vertex 23.8033 33.8712 -0.1
      vertex 24.2 47 -0.1
      vertex 24 32 -0.1
    endloop
  endfacet
  facet normal 0 0 -1
    outer loop
      vertex 23.2219 35.6606 -0.1
      vertex 24.2 47 -0.1
      vertex 23.8033 33.8712 -0.1
    endloop
  endfacet
  facet normal 0 0 -1
    outer loop
      vertex 22.2812 37.2901 -0.1
      vertex 24.2 47 -0.1
      vertex 23.2219 35.6606 -0.1
    endloop
  endfacet
  facet normal 0 0 -1
    outer loop
      vertex 21.0222 38.6883 -0.1
      vertex 24.2 47 -0.1
      vertex 22.2812 37.2901 -0.1
    endloop
  endfacet
  facet normal 0 0 -1
    outer loop
      vertex 19.5 39.7942 -0.1
      vertex 24.2 47 -0.1
      vertex 21.0222 38.6883 -0.1
    endloop
  endfacet
  facet normal 0 0 -1
    outer loop
      vertex 26.4 47 -0.1
      vertex 20 54 -0.1
      vertex 19.8907 55.0396 -0.1
    endloop
  endfacet
  facet normal 0 0 -1
    outer loop
      vertex 26.4 47 -0.1
      vertex 19.8907 55.0396 -0.1
      vertex 27 71 -0.1
    endloop
  endfacet
  facet normal 0 0 -1
    outer loop
      vertex 19.5677 56.0337 -0.1
      vertex 27 71 -0.1
      vertex 19.8907 55.0396 -0.1
    endloop
  endfacet
  facet normal 0 0 -1
    outer loop
      vertex 19.0451 56.9389 -0.1
      vertex 27 71 -0.1
      vertex 19.5677 56.0337 -0.1
    endloop
  endfacet
  facet normal 0 0 -1
    outer loop
      vertex 18.3457 57.7157 -0.1
      vertex 27 71 -0.1
      vertex 19.0451 56.9389 -0.1
    endloop
  endfacet
  facet normal 0 0 -1
    outer loop
      vertex 17.5 58.3301 -0.1
      vertex 27 71 -0.1
      vertex 18.3457 57.7157 -0.1
    endloop
  endfacet
  facet normal 0 0 -1
    outer loop
      vertex 16.5451 58.7553 -0.1
      vertex 27 71 -0.1
      vertex 17.5 58.3301 -0.1
    endloop
  endfacet
  facet normal 0 0 -1
    outer loop
      vertex 15.5226 58.9726 -0.1
      vertex 27 71 -0.1
      vertex 16.5451 58.7553 -0.1
    endloop
  endfacet
  facet normal 0 0 -1
    outer loop
      vertex 9 71 -0.1
      vertex 15.5226 58.9726 -0.1
      vertex 14.4774 58.9726 -0.1
    endloop
  endfacet
  facet normal 0 0 -1
    outer loop
      vertex 9 71 -0.1
      vertex 14.4774 58.9726 -0.1
      vertex 13.4549 58.7553 -0.1
    endloop
  endfacet
  facet normal 0 0 -1
    outer loop
      vertex 9 71 -0.1
      vertex 13.4549 58.7553 -0.1
      vertex 12.5 58.3301 -0.1
    endloop
  endfacet
  facet normal 0 0 -1
    outer loop
      vertex 9 71 -0.1
      vertex 12.5 58.3301 -0.1
      vertex 11.6543 57.7157 -0.1
    endloop
  endfacet
  facet normal 0 0 -1
    outer loop
      vertex 15.5226 58.9726 -0.1
      vertex 9 71 -0.1
      vertex 27 71 -0.1
    endloop
  endfacet
  facet normal 0 0 -1
    outer loop
      vertex 10.9549 56.9389 -0.1
      vertex 9 71 -0.1
      vertex 11.6543 57.7157 -0.1
    endloop
  endfacet
  facet normal 0 0 -1
    outer loop
      vertex 10.4323 56.0337 -0.1
      vertex 9 71 -0.1
      vertex 10.9549 56.9389 -0.1
    endloop
  endfacet
  facet normal 0 0 -1
    outer loop
      vertex 10.1093 55.0396 -0.1
      vertex 9 71 -0.1
      vertex 10.4323 56.0337 -0.1
    endloop
  endfacet
  facet normal 0 0 -1
    outer loop
      vertex 9 71 -0.1
      vertex 10.1093 55.0396 -0.1
      vertex 10 54 -0.1
    endloop
  endfacet
  facet normal 0 -0 -1
    outer loop
      vertex 21.0222 25.3117 -0.1
      vertex 26.4 27 -0.1
      vertex 19.0451 13.4389 -0.1
    endloop
  endfacet
  facet normal 0 0 -1
    outer loop
      vertex 24.2 27 -0.1
      vertex 21.0222 25.3117 -0.1
      vertex 22.2812 26.7099 -0.1
    endloop
  endfacet
  facet normal -0 0 -1
    outer loop
      vertex 26.4 27 -0.1
      vertex 21.0222 25.3117 -0.1
      vertex 24.2 27 -0.1
    endloop
  endfacet
  facet normal 0 0 -1
    outer loop
      vertex 21.0222 25.3117 -0.1
      vertex 19.0451 13.4389 -0.1
      vertex 19.5 24.2058 -0.1
    endloop
  endfacet
  facet normal 0 0 -1
    outer loop
      vertex 18.3457 14.2157 -0.1
      vertex 19.5 24.2058 -0.1
      vertex 19.0451 13.4389 -0.1
    endloop
  endfacet
  facet normal 0 0 -1
    outer loop
      vertex 17.5 14.8301 -0.1
      vertex 19.5 24.2058 -0.1
      vertex 18.3457 14.2157 -0.1
    endloop
  endfacet
  facet normal 0 0 -1
    outer loop
      vertex 19.5 24.2058 -0.1
      vertex 17.5 14.8301 -0.1
      vertex 17.7812 23.4405 -0.1
    endloop
  endfacet
  facet normal 0 0 -1
    outer loop
      vertex 16.5451 15.2553 -0.1
      vertex 17.7812 23.4405 -0.1
      vertex 17.5 14.8301 -0.1
    endloop
  endfacet
  facet normal 0 0 -1
    outer loop
      vertex 16.5451 15.2553 -0.1
      vertex 15.9408 23.0493 -0.1
      vertex 17.7812 23.4405 -0.1
    endloop
  endfacet
  facet normal 0 0 -1
    outer loop
      vertex 15.5226 15.4726 -0.1
      vertex 15.9408 23.0493 -0.1
      vertex 16.5451 15.2553 -0.1
    endloop
  endfacet
  facet normal 0 0 -1
    outer loop
      vertex 14.4774 15.4726 -0.1
      vertex 15.9408 23.0493 -0.1
      vertex 15.5226 15.4726 -0.1
    endloop
  endfacet
  facet normal 0 0 -1
    outer loop
      vertex 14.4774 15.4726 -0.1
      vertex 14.0592 23.0493 -0.1
      vertex 15.9408 23.0493 -0.1
    endloop
  endfacet
  facet normal 0 0 -1
    outer loop
      vertex 13.4549 15.2553 -0.1
      vertex 14.0592 23.0493 -0.1
      vertex 14.4774 15.4726 -0.1
    endloop
  endfacet
  facet normal 0 0 -1
    outer loop
      vertex 12.2188 23.4405 -0.1
      vertex 13.4549 15.2553 -0.1
      vertex 12.5 14.8301 -0.1
    endloop
  endfacet
  facet normal 0 0 -1
    outer loop
      vertex 13.4549 15.2553 -0.1
      vertex 12.2188 23.4405 -0.1
      vertex 14.0592 23.0493 -0.1
    endloop
  endfacet
  facet normal 0 0 -1
    outer loop
      vertex 10.5 24.2058 -0.1
      vertex 12.5 14.8301 -0.1
      vertex 11.6543 14.2157 -0.1
    endloop
  endfacet
  facet normal 0 0 -1
    outer loop
      vertex 10.5 24.2058 -0.1
      vertex 11.6543 14.2157 -0.1
      vertex 10.9549 13.4389 -0.1
    endloop
  endfacet
  facet normal 0 0 -1
    outer loop
      vertex 12.5 14.8301 -0.1
      vertex 10.5 24.2058 -0.1
      vertex 12.2188 23.4405 -0.1
    endloop
  endfacet
  facet normal 0 0 -1
    outer loop
      vertex 8.97782 25.3117 -0.1
      vertex 10.9549 13.4389 -0.1
      vertex 10.4323 12.5337 -0.1
    endloop
  endfacet
  facet normal 0 0 -1
    outer loop
      vertex 7.71885 26.7099 -0.1
      vertex 10.4323 12.5337 -0.1
      vertex 10.1093 11.5396 -0.1
    endloop
  endfacet
  facet normal 0 0 -1
    outer loop
      vertex 0 0 -0.1
      vertex 10.1093 11.5396 -0.1
      vertex 10 10.5 -0.1
    endloop
  endfacet
  facet normal 0 0 -1
    outer loop
      vertex 10.9549 13.4389 -0.1
      vertex 8.97782 25.3117 -0.1
      vertex 10.5 24.2058 -0.1
    endloop
  endfacet
  facet normal 0 -1 0
    outer loop
      vertex 0 0 -0.1
      vertex 30 0 1.9
      vertex 0 0 1.9
    endloop
  endfacet
  facet normal 0 -1 -0
    outer loop
      vertex 30 0 1.9
      vertex 0 0 -0.1
      vertex 30 0 -0.1
    endloop
  endfacet
  facet normal 0 1 -0
    outer loop
      vertex 30 120 -0.1
      vertex 0 120 1.9
      vertex 30 120 1.9
    endloop
  endfacet
  facet normal 0 1 0
    outer loop
      vertex 0 120 1.9
      vertex 30 120 -0.1
      vertex 0 120 -0.1
    endloop
  endfacet
  facet normal -0.994522 -0.104529 0
    outer loop
      vertex 20 10.5 -0.1
      vertex 19.8907 11.5396 1.9
      vertex 19.8907 11.5396 -0.1
    endloop
  endfacet
  facet normal -0.994522 -0.104529 0
    outer loop
      vertex 19.8907 11.5396 1.9
      vertex 20 10.5 -0.1
      vertex 20 10.5 1.9
    endloop
  endfacet
  facet normal 0 -1 0
    outer loop
      vertex 14.4774 15.4726 -0.1
      vertex 15.5226 15.4726 1.9
      vertex 14.4774 15.4726 1.9
    endloop
  endfacet
  facet normal 0 -1 -0
    outer loop
      vertex 15.5226 15.4726 1.9
      vertex 14.4774 15.4726 -0.1
      vertex 15.5226 15.4726 -0.1
    endloop
  endfacet
  facet normal 0.587785 0.809017 -0
    outer loop
      vertex 12.5 6.16987 -0.1
      vertex 11.6543 6.78428 1.9
      vertex 12.5 6.16987 1.9
    endloop
  endfacet
  facet normal 0.587785 0.809017 0
    outer loop
      vertex 11.6543 6.78428 1.9
      vertex 12.5 6.16987 -0.1
      vertex 11.6543 6.78428 -0.1
    endloop
  endfacet
  facet normal -0.587785 -0.809017 0
    outer loop
      vertex 17.5 14.8301 -0.1
      vertex 18.3457 14.2157 1.9
      vertex 17.5 14.8301 1.9
    endloop
  endfacet
  facet normal -0.587785 -0.809017 -0
    outer loop
      vertex 18.3457 14.2157 1.9
      vertex 17.5 14.8301 -0.1
      vertex 18.3457 14.2157 -0.1
    endloop
  endfacet
  facet normal 0.743145 -0.669131 0
    outer loop
      vertex 10.9549 13.4389 1.9
      vertex 11.6543 14.2157 -0.1
      vertex 11.6543 14.2157 1.9
    endloop
  endfacet
  facet normal 0.743145 -0.669131 0
    outer loop
      vertex 11.6543 14.2157 -0.1
      vertex 10.9549 13.4389 1.9
      vertex 10.9549 13.4389 -0.1
    endloop
  endfacet
  facet normal 0.406737 -0.913545 0
    outer loop
      vertex 12.5 14.8301 -0.1
      vertex 13.4549 15.2553 1.9
      vertex 12.5 14.8301 1.9
    endloop
  endfacet
  facet normal 0.406737 -0.913545 0
    outer loop
      vertex 13.4549 15.2553 1.9
      vertex 12.5 14.8301 -0.1
      vertex 13.4549 15.2553 -0.1
    endloop
  endfacet
  facet normal -0.743145 0.669131 0
    outer loop
      vertex 18.3457 6.78428 -0.1
      vertex 19.0451 7.56107 1.9
      vertex 19.0451 7.56107 -0.1
    endloop
  endfacet
  facet normal -0.743145 0.669131 0
    outer loop
      vertex 19.0451 7.56107 1.9
      vertex 18.3457 6.78428 -0.1
      vertex 18.3457 6.78428 1.9
    endloop
  endfacet
  facet normal -0.866026 -0.5 0
    outer loop
      vertex 19.5677 12.5337 -0.1
      vertex 19.0451 13.4389 1.9
      vertex 19.0451 13.4389 -0.1
    endloop
  endfacet
  facet normal -0.866026 -0.5 0
    outer loop
      vertex 19.0451 13.4389 1.9
      vertex 19.5677 12.5337 -0.1
      vertex 19.5677 12.5337 1.9
    endloop
  endfacet
  facet normal -0.951057 -0.309016 0
    outer loop
      vertex 19.8907 11.5396 -0.1
      vertex 19.5677 12.5337 1.9
      vertex 19.5677 12.5337 -0.1
    endloop
  endfacet
  facet normal -0.951057 -0.309016 0
    outer loop
      vertex 19.5677 12.5337 1.9
      vertex 19.8907 11.5396 -0.1
      vertex 19.8907 11.5396 1.9
    endloop
  endfacet
  facet normal -0.743144 -0.669131 0
    outer loop
      vertex 19.0451 13.4389 -0.1
      vertex 18.3457 14.2157 1.9
      vertex 18.3457 14.2157 -0.1
    endloop
  endfacet
  facet normal -0.743144 -0.669131 0
    outer loop
      vertex 18.3457 14.2157 1.9
      vertex 19.0451 13.4389 -0.1
      vertex 19.0451 13.4389 1.9
    endloop
  endfacet
  facet normal -0.207912 -0.978148 0
    outer loop
      vertex 15.5226 15.4726 -0.1
      vertex 16.5451 15.2553 1.9
      vertex 15.5226 15.4726 1.9
    endloop
  endfacet
  facet normal -0.207912 -0.978148 -0
    outer loop
      vertex 16.5451 15.2553 1.9
      vertex 15.5226 15.4726 -0.1
      vertex 16.5451 15.2553 -0.1
    endloop
  endfacet
  facet normal -0.406737 -0.913545 0
    outer loop
      vertex 16.5451 15.2553 -0.1
      vertex 17.5 14.8301 1.9
      vertex 16.5451 15.2553 1.9
    endloop
  endfacet
  facet normal -0.406737 -0.913545 -0
    outer loop
      vertex 17.5 14.8301 1.9
      vertex 16.5451 15.2553 -0.1
      vertex 17.5 14.8301 -0.1
    endloop
  endfacet
  facet normal 0.951057 -0.309017 0
    outer loop
      vertex 10.1093 11.5396 1.9
      vertex 10.4323 12.5337 -0.1
      vertex 10.4323 12.5337 1.9
    endloop
  endfacet
  facet normal 0.951057 -0.309017 0
    outer loop
      vertex 10.4323 12.5337 -0.1
      vertex 10.1093 11.5396 1.9
      vertex 10.1093 11.5396 -0.1
    endloop
  endfacet
  facet normal 0.866026 -0.5 0
    outer loop
      vertex 10.4323 12.5337 1.9
      vertex 10.9549 13.4389 -0.1
      vertex 10.9549 13.4389 1.9
    endloop
  endfacet
  facet normal 0.866026 -0.5 0
    outer loop
      vertex 10.9549 13.4389 -0.1
      vertex 10.4323 12.5337 1.9
      vertex 10.4323 12.5337 -0.1
    endloop
  endfacet
  facet normal 0.994522 -0.104529 0
    outer loop
      vertex 10 10.5 1.9
      vertex 10.1093 11.5396 -0.1
      vertex 10.1093 11.5396 1.9
    endloop
  endfacet
  facet normal 0.994522 -0.104529 0
    outer loop
      vertex 10.1093 11.5396 -0.1
      vertex 10 10.5 1.9
      vertex 10 10.5 -0.1
    endloop
  endfacet
  facet normal 0.587785 -0.809017 0
    outer loop
      vertex 11.6543 14.2157 -0.1
      vertex 12.5 14.8301 1.9
      vertex 11.6543 14.2157 1.9
    endloop
  endfacet
  facet normal 0.587785 -0.809017 0
    outer loop
      vertex 12.5 14.8301 1.9
      vertex 11.6543 14.2157 -0.1
      vertex 12.5 14.8301 -0.1
    endloop
  endfacet
  facet normal 0.207912 -0.978148 0
    outer loop
      vertex 13.4549 15.2553 -0.1
      vertex 14.4774 15.4726 1.9
      vertex 13.4549 15.2553 1.9
    endloop
  endfacet
  facet normal 0.207912 -0.978148 0
    outer loop
      vertex 14.4774 15.4726 1.9
      vertex 13.4549 15.2553 -0.1
      vertex 14.4774 15.4726 -0.1
    endloop
  endfacet
  facet normal -0.994522 0.104529 0
    outer loop
      vertex 19.8907 9.46044 -0.1
      vertex 20 10.5 1.9
      vertex 20 10.5 -0.1
    endloop
  endfacet
  facet normal -0.994522 0.104529 0
    outer loop
      vertex 20 10.5 1.9
      vertex 19.8907 9.46044 -0.1
      vertex 19.8907 9.46044 1.9
    endloop
  endfacet
  facet normal -0.207912 0.978148 0
    outer loop
      vertex 16.5451 5.74472 -0.1
      vertex 15.5226 5.52739 1.9
      vertex 16.5451 5.74472 1.9
    endloop
  endfacet
  facet normal -0.207912 0.978148 0
    outer loop
      vertex 15.5226 5.52739 1.9
      vertex 16.5451 5.74472 -0.1
      vertex 15.5226 5.52739 -0.1
    endloop
  endfacet
  facet normal -0.587785 0.809017 0
    outer loop
      vertex 18.3457 6.78428 -0.1
      vertex 17.5 6.16987 1.9
      vertex 18.3457 6.78428 1.9
    endloop
  endfacet
  facet normal -0.587785 0.809017 0
    outer loop
      vertex 17.5 6.16987 1.9
      vertex 18.3457 6.78428 -0.1
      vertex 17.5 6.16987 -0.1
    endloop
  endfacet
  facet normal 0.406736 0.913546 -0
    outer loop
      vertex 13.4549 5.74472 -0.1
      vertex 12.5 6.16987 1.9
      vertex 13.4549 5.74472 1.9
    endloop
  endfacet
  facet normal 0.406736 0.913546 0
    outer loop
      vertex 12.5 6.16987 1.9
      vertex 13.4549 5.74472 -0.1
      vertex 12.5 6.16987 -0.1
    endloop
  endfacet
  facet normal 0 1 -0
    outer loop
      vertex 15.5226 5.52739 -0.1
      vertex 14.4774 5.52739 1.9
      vertex 15.5226 5.52739 1.9
    endloop
  endfacet
  facet normal 0 1 0
    outer loop
      vertex 14.4774 5.52739 1.9
      vertex 15.5226 5.52739 -0.1
      vertex 14.4774 5.52739 -0.1
    endloop
  endfacet
  facet normal 0.743145 0.66913 0
    outer loop
      vertex 11.6543 6.78428 1.9
      vertex 10.9549 7.56107 -0.1
      vertex 10.9549 7.56107 1.9
    endloop
  endfacet
  facet normal 0.743145 0.66913 0
    outer loop
      vertex 10.9549 7.56107 -0.1
      vertex 11.6543 6.78428 1.9
      vertex 11.6543 6.78428 -0.1
    endloop
  endfacet
  facet normal 0.951057 0.309017 0
    outer loop
      vertex 10.4323 8.46632 1.9
      vertex 10.1093 9.46044 -0.1
      vertex 10.1093 9.46044 1.9
    endloop
  endfacet
  facet normal 0.951057 0.309017 0
    outer loop
      vertex 10.1093 9.46044 -0.1
      vertex 10.4323 8.46632 1.9
      vertex 10.4323 8.46632 -0.1
    endloop
  endfacet
  facet normal 0.994522 0.104529 0
    outer loop
      vertex 10.1093 9.46044 1.9
      vertex 10 10.5 -0.1
      vertex 10 10.5 1.9
    endloop
  endfacet
  facet normal 0.994522 0.104529 0
    outer loop
      vertex 10 10.5 -0.1
      vertex 10.1093 9.46044 1.9
      vertex 10.1093 9.46044 -0.1
    endloop
  endfacet
  facet normal -0.406737 0.913545 0
    outer loop
      vertex 17.5 6.16987 -0.1
      vertex 16.5451 5.74472 1.9
      vertex 17.5 6.16987 1.9
    endloop
  endfacet
  facet normal -0.406737 0.913545 0
    outer loop
      vertex 16.5451 5.74472 1.9
      vertex 17.5 6.16987 -0.1
      vertex 16.5451 5.74472 -0.1
    endloop
  endfacet
  facet normal -0.951057 0.309016 0
    outer loop
      vertex 19.5677 8.46632 -0.1
      vertex 19.8907 9.46044 1.9
      vertex 19.8907 9.46044 -0.1
    endloop
  endfacet
  facet normal -0.951057 0.309016 0
    outer loop
      vertex 19.8907 9.46044 1.9
      vertex 19.5677 8.46632 -0.1
      vertex 19.5677 8.46632 1.9
    endloop
  endfacet
  facet normal -0.866025 0.5 0
    outer loop
      vertex 19.0451 7.56107 -0.1
      vertex 19.5677 8.46632 1.9
      vertex 19.5677 8.46632 -0.1
    endloop
  endfacet
  facet normal -0.866025 0.5 0
    outer loop
      vertex 19.5677 8.46632 1.9
      vertex 19.0451 7.56107 -0.1
      vertex 19.0451 7.56107 1.9
    endloop
  endfacet
  facet normal 0.207912 0.978148 -0
    outer loop
      vertex 14.4774 5.52739 -0.1
      vertex 13.4549 5.74472 1.9
      vertex 14.4774 5.52739 1.9
    endloop
  endfacet
  facet normal 0.207912 0.978148 0
    outer loop
      vertex 13.4549 5.74472 1.9
      vertex 14.4774 5.52739 -0.1
      vertex 13.4549 5.74472 -0.1
    endloop
  endfacet
  facet normal 0.866025 0.5 0
    outer loop
      vertex 10.9549 7.56107 1.9
      vertex 10.4323 8.46632 -0.1
      vertex 10.4323 8.46632 1.9
    endloop
  endfacet
  facet normal 0.866025 0.5 0
    outer loop
      vertex 10.4323 8.46632 -0.1
      vertex 10.9549 7.56107 1.9
      vertex 10.9549 7.56107 -0.1
    endloop
  endfacet
  facet normal -0.994522 -0.104529 0
    outer loop
      vertex 20 54 -0.1
      vertex 19.8907 55.0396 1.9
      vertex 19.8907 55.0396 -0.1
    endloop
  endfacet
  facet normal -0.994522 -0.104529 0
    outer loop
      vertex 19.8907 55.0396 1.9
      vertex 20 54 -0.1
      vertex 20 54 1.9
    endloop
  endfacet
  facet normal 0 -1 0
    outer loop
      vertex 14.4774 58.9726 -0.1
      vertex 15.5226 58.9726 1.9
      vertex 14.4774 58.9726 1.9
    endloop
  endfacet
  facet normal 0 -1 -0
    outer loop
      vertex 15.5226 58.9726 1.9
      vertex 14.4774 58.9726 -0.1
      vertex 15.5226 58.9726 -0.1
    endloop
  endfacet
  facet normal -0.587785 -0.809017 0
    outer loop
      vertex 17.5 58.3301 -0.1
      vertex 18.3457 57.7157 1.9
      vertex 17.5 58.3301 1.9
    endloop
  endfacet
  facet normal -0.587785 -0.809017 -0
    outer loop
      vertex 18.3457 57.7157 1.9
      vertex 17.5 58.3301 -0.1
      vertex 18.3457 57.7157 -0.1
    endloop
  endfacet
  facet normal 0.743145 -0.66913 0
    outer loop
      vertex 10.9549 56.9389 1.9
      vertex 11.6543 57.7157 -0.1
      vertex 11.6543 57.7157 1.9
    endloop
  endfacet
  facet normal 0.743145 -0.66913 0
    outer loop
      vertex 11.6543 57.7157 -0.1
      vertex 10.9549 56.9389 1.9
      vertex 10.9549 56.9389 -0.1
    endloop
  endfacet
  facet normal 0.406737 -0.913545 0
    outer loop
      vertex 12.5 58.3301 -0.1
      vertex 13.4549 58.7553 1.9
      vertex 12.5 58.3301 1.9
    endloop
  endfacet
  facet normal 0.406737 -0.913545 0
    outer loop
      vertex 13.4549 58.7553 1.9
      vertex 12.5 58.3301 -0.1
      vertex 13.4549 58.7553 -0.1
    endloop
  endfacet
  facet normal -0.743145 0.669131 0
    outer loop
      vertex 18.3457 50.2843 -0.1
      vertex 19.0451 51.0611 1.9
      vertex 19.0451 51.0611 -0.1
    endloop
  endfacet
  facet normal -0.743145 0.669131 0
    outer loop
      vertex 19.0451 51.0611 1.9
      vertex 18.3457 50.2843 -0.1
      vertex 18.3457 50.2843 1.9
    endloop
  endfacet
  facet normal -0.866025 -0.5 0
    outer loop
      vertex 19.5677 56.0337 -0.1
      vertex 19.0451 56.9389 1.9
      vertex 19.0451 56.9389 -0.1
    endloop
  endfacet
  facet normal -0.866025 -0.5 0
    outer loop
      vertex 19.0451 56.9389 1.9
      vertex 19.5677 56.0337 -0.1
      vertex 19.5677 56.0337 1.9
    endloop
  endfacet
  facet normal -0.951057 -0.309016 0
    outer loop
      vertex 19.8907 55.0396 -0.1
      vertex 19.5677 56.0337 1.9
      vertex 19.5677 56.0337 -0.1
    endloop
  endfacet
  facet normal -0.951057 -0.309016 0
    outer loop
      vertex 19.5677 56.0337 1.9
      vertex 19.8907 55.0396 -0.1
      vertex 19.8907 55.0396 1.9
    endloop
  endfacet
  facet normal -0.743145 -0.669131 0
    outer loop
      vertex 19.0451 56.9389 -0.1
      vertex 18.3457 57.7157 1.9
      vertex 18.3457 57.7157 -0.1
    endloop
  endfacet
  facet normal -0.743145 -0.669131 0
    outer loop
      vertex 18.3457 57.7157 1.9
      vertex 19.0451 56.9389 -0.1
      vertex 19.0451 56.9389 1.9
    endloop
  endfacet
  facet normal -0.207912 -0.978148 0
    outer loop
      vertex 15.5226 58.9726 -0.1
      vertex 16.5451 58.7553 1.9
      vertex 15.5226 58.9726 1.9
    endloop
  endfacet
  facet normal -0.207912 -0.978148 -0
    outer loop
      vertex 16.5451 58.7553 1.9
      vertex 15.5226 58.9726 -0.1
      vertex 16.5451 58.7553 -0.1
    endloop
  endfacet
  facet normal -0.406737 -0.913545 0
    outer loop
      vertex 16.5451 58.7553 -0.1
      vertex 17.5 58.3301 1.9
      vertex 16.5451 58.7553 1.9
    endloop
  endfacet
  facet normal -0.406737 -0.913545 -0
    outer loop
      vertex 17.5 58.3301 1.9
      vertex 16.5451 58.7553 -0.1
      vertex 17.5 58.3301 -0.1
    endloop
  endfacet
  facet normal 0.951057 -0.309017 0
    outer loop
      vertex 10.1093 55.0396 1.9
      vertex 10.4323 56.0337 -0.1
      vertex 10.4323 56.0337 1.9
    endloop
  endfacet
  facet normal 0.951057 -0.309017 0
    outer loop
      vertex 10.4323 56.0337 -0.1
      vertex 10.1093 55.0396 1.9
      vertex 10.1093 55.0396 -0.1
    endloop
  endfacet
  facet normal 0.866025 -0.5 0
    outer loop
      vertex 10.4323 56.0337 1.9
      vertex 10.9549 56.9389 -0.1
      vertex 10.9549 56.9389 1.9
    endloop
  endfacet
  facet normal 0.866025 -0.5 0
    outer loop
      vertex 10.9549 56.9389 -0.1
      vertex 10.4323 56.0337 1.9
      vertex 10.4323 56.0337 -0.1
    endloop
  endfacet
  facet normal 0.994522 -0.104529 0
    outer loop
      vertex 10 54 1.9
      vertex 10.1093 55.0396 -0.1
      vertex 10.1093 55.0396 1.9
    endloop
  endfacet
  facet normal 0.994522 -0.104529 0
    outer loop
      vertex 10.1093 55.0396 -0.1
      vertex 10 54 1.9
      vertex 10 54 -0.1
    endloop
  endfacet
  facet normal 0.587785 -0.809017 0
    outer loop
      vertex 11.6543 57.7157 -0.1
      vertex 12.5 58.3301 1.9
      vertex 11.6543 57.7157 1.9
    endloop
  endfacet
  facet normal 0.587785 -0.809017 0
    outer loop
      vertex 12.5 58.3301 1.9
      vertex 11.6543 57.7157 -0.1
      vertex 12.5 58.3301 -0.1
    endloop
  endfacet
  facet normal 0.207912 -0.978148 0
    outer loop
      vertex 13.4549 58.7553 -0.1
      vertex 14.4774 58.9726 1.9
      vertex 13.4549 58.7553 1.9
    endloop
  endfacet
  facet normal 0.207912 -0.978148 0
    outer loop
      vertex 14.4774 58.9726 1.9
      vertex 13.4549 58.7553 -0.1
      vertex 14.4774 58.9726 -0.1
    endloop
  endfacet
  facet normal -0.994522 0.104529 0
    outer loop
      vertex 19.8907 52.9604 -0.1
      vertex 20 54 1.9
      vertex 20 54 -0.1
    endloop
  endfacet
  facet normal -0.994522 0.104529 0
    outer loop
      vertex 20 54 1.9
      vertex 19.8907 52.9604 -0.1
      vertex 19.8907 52.9604 1.9
    endloop
  endfacet
  facet normal -0.207912 0.978148 0
    outer loop
      vertex 16.5451 49.2447 -0.1
      vertex 15.5226 49.0274 1.9
      vertex 16.5451 49.2447 1.9
    endloop
  endfacet
  facet normal -0.207912 0.978148 0
    outer loop
      vertex 15.5226 49.0274 1.9
      vertex 16.5451 49.2447 -0.1
      vertex 15.5226 49.0274 -0.1
    endloop
  endfacet
  facet normal -0.587785 0.809017 0
    outer loop
      vertex 18.3457 50.2843 -0.1
      vertex 17.5 49.6699 1.9
      vertex 18.3457 50.2843 1.9
    endloop
  endfacet
  facet normal -0.587785 0.809017 0
    outer loop
      vertex 17.5 49.6699 1.9
      vertex 18.3457 50.2843 -0.1
      vertex 17.5 49.6699 -0.1
    endloop
  endfacet
  facet normal 0.406737 0.913545 -0
    outer loop
      vertex 13.4549 49.2447 -0.1
      vertex 12.5 49.6699 1.9
      vertex 13.4549 49.2447 1.9
    endloop
  endfacet
  facet normal 0.406737 0.913545 0
    outer loop
      vertex 12.5 49.6699 1.9
      vertex 13.4549 49.2447 -0.1
      vertex 12.5 49.6699 -0.1
    endloop
  endfacet
  facet normal 0 1 -0
    outer loop
      vertex 15.5226 49.0274 -0.1
      vertex 14.4774 49.0274 1.9
      vertex 15.5226 49.0274 1.9
    endloop
  endfacet
  facet normal 0 1 0
    outer loop
      vertex 14.4774 49.0274 1.9
      vertex 15.5226 49.0274 -0.1
      vertex 14.4774 49.0274 -0.1
    endloop
  endfacet
  facet normal 0.743145 0.66913 0
    outer loop
      vertex 11.6543 50.2843 1.9
      vertex 10.9549 51.0611 -0.1
      vertex 10.9549 51.0611 1.9
    endloop
  endfacet
  facet normal 0.743145 0.66913 0
    outer loop
      vertex 10.9549 51.0611 -0.1
      vertex 11.6543 50.2843 1.9
      vertex 11.6543 50.2843 -0.1
    endloop
  endfacet
  facet normal 0.951057 0.309017 0
    outer loop
      vertex 10.4323 51.9663 1.9
      vertex 10.1093 52.9604 -0.1
      vertex 10.1093 52.9604 1.9
    endloop
  endfacet
  facet normal 0.951057 0.309017 0
    outer loop
      vertex 10.1093 52.9604 -0.1
      vertex 10.4323 51.9663 1.9
      vertex 10.4323 51.9663 -0.1
    endloop
  endfacet
  facet normal 0.994522 0.104529 0
    outer loop
      vertex 10.1093 52.9604 1.9
      vertex 10 54 -0.1
      vertex 10 54 1.9
    endloop
  endfacet
  facet normal 0.994522 0.104529 0
    outer loop
      vertex 10 54 -0.1
      vertex 10.1093 52.9604 1.9
      vertex 10.1093 52.9604 -0.1
    endloop
  endfacet
  facet normal -0.406737 0.913545 0
    outer loop
      vertex 17.5 49.6699 -0.1
      vertex 16.5451 49.2447 1.9
      vertex 17.5 49.6699 1.9
    endloop
  endfacet
  facet normal -0.406737 0.913545 0
    outer loop
      vertex 16.5451 49.2447 1.9
      vertex 17.5 49.6699 -0.1
      vertex 16.5451 49.2447 -0.1
    endloop
  endfacet
  facet normal -0.951057 0.309016 0
    outer loop
      vertex 19.5677 51.9663 -0.1
      vertex 19.8907 52.9604 1.9
      vertex 19.8907 52.9604 -0.1
    endloop
  endfacet
  facet normal -0.951057 0.309016 0
    outer loop
      vertex 19.8907 52.9604 1.9
      vertex 19.5677 51.9663 -0.1
      vertex 19.5677 51.9663 1.9
    endloop
  endfacet
  facet normal -0.866025 0.5 0
    outer loop
      vertex 19.0451 51.0611 -0.1
      vertex 19.5677 51.9663 1.9
      vertex 19.5677 51.9663 -0.1
    endloop
  endfacet
  facet normal -0.866025 0.5 0
    outer loop
      vertex 19.5677 51.9663 1.9
      vertex 19.0451 51.0611 -0.1
      vertex 19.0451 51.0611 1.9
    endloop
  endfacet
  facet normal 0.207912 0.978148 -0
    outer loop
      vertex 14.4774 49.0274 -0.1
      vertex 13.4549 49.2447 1.9
      vertex 14.4774 49.0274 1.9
    endloop
  endfacet
  facet normal 0.207912 0.978148 0
    outer loop
      vertex 13.4549 49.2447 1.9
      vertex 14.4774 49.0274 -0.1
      vertex 13.4549 49.2447 -0.1
    endloop
  endfacet
  facet normal 0.587785 0.809017 -0
    outer loop
      vertex 12.5 49.6699 -0.1
      vertex 11.6543 50.2843 1.9
      vertex 12.5 49.6699 1.9
    endloop
  endfacet
  facet normal 0.587785 0.809017 0
    outer loop
      vertex 11.6543 50.2843 1.9
      vertex 12.5 49.6699 -0.1
      vertex 11.6543 50.2843 -0.1
    endloop
  endfacet
  facet normal 0.866025 0.5 0
    outer loop
      vertex 10.9549 51.0611 1.9
      vertex 10.4323 51.9663 -0.1
      vertex 10.4323 51.9663 1.9
    endloop
  endfacet
  facet normal 0.866025 0.5 0
    outer loop
      vertex 10.4323 51.9663 -0.1
      vertex 10.9549 51.0611 1.9
      vertex 10.9549 51.0611 -0.1
    endloop
  endfacet
  facet normal -0.994522 -0.104529 0
    outer loop
      vertex 24 32 -0.1
      vertex 23.8033 33.8712 1.9
      vertex 23.8033 33.8712 -0.1
    endloop
  endfacet
  facet normal -0.994522 -0.104529 0
    outer loop
      vertex 23.8033 33.8712 1.9
      vertex 24 32 -0.1
      vertex 24 32 1.9
    endloop
  endfacet
  facet normal 0 -1 0
    outer loop
      vertex 14.0592 40.9507 -0.1
      vertex 15.9408 40.9507 1.9
      vertex 14.0592 40.9507 1.9
    endloop
  endfacet
  facet normal 0 -1 -0
    outer loop
      vertex 15.9408 40.9507 1.9
      vertex 14.0592 40.9507 -0.1
      vertex 15.9408 40.9507 -0.1
    endloop
  endfacet
  facet normal -0.743145 -0.66913 0
    outer loop
      vertex 22.2812 37.2901 -0.1
      vertex 21.0222 38.6883 1.9
      vertex 21.0222 38.6883 -0.1
    endloop
  endfacet
  facet normal -0.743145 -0.66913 0
    outer loop
      vertex 21.0222 38.6883 1.9
      vertex 22.2812 37.2901 -0.1
      vertex 22.2812 37.2901 1.9
    endloop
  endfacet
  facet normal 0.743146 -0.66913 0
    outer loop
      vertex 7.71885 37.2901 1.9
      vertex 8.97782 38.6883 -0.1
      vertex 8.97782 38.6883 1.9
    endloop
  endfacet
  facet normal 0.743146 -0.66913 0
    outer loop
      vertex 8.97782 38.6883 -0.1
      vertex 7.71885 37.2901 1.9
      vertex 7.71885 37.2901 -0.1
    endloop
  endfacet
  facet normal 0.406737 -0.913545 0
    outer loop
      vertex 10.5 39.7942 -0.1
      vertex 12.2188 40.5595 1.9
      vertex 10.5 39.7942 1.9
    endloop
  endfacet
  facet normal 0.406737 -0.913545 0
    outer loop
      vertex 12.2188 40.5595 1.9
      vertex 10.5 39.7942 -0.1
      vertex 12.2188 40.5595 -0.1
    endloop
  endfacet
  facet normal -0.866026 0.5 0
    outer loop
      vertex 22.2812 26.7099 -0.1
      vertex 23.2219 28.3394 1.9
      vertex 23.2219 28.3394 -0.1
    endloop
  endfacet
  facet normal -0.866026 0.5 0
    outer loop
      vertex 23.2219 28.3394 1.9
      vertex 22.2812 26.7099 -0.1
      vertex 22.2812 26.7099 1.9
    endloop
  endfacet
  facet normal -0.866025 -0.5 0
    outer loop
      vertex 23.2219 35.6606 -0.1
      vertex 22.2812 37.2901 1.9
      vertex 22.2812 37.2901 -0.1
    endloop
  endfacet
  facet normal -0.866025 -0.5 0
    outer loop
      vertex 22.2812 37.2901 1.9
      vertex 23.2219 35.6606 -0.1
      vertex 23.2219 35.6606 1.9
    endloop
  endfacet
  facet normal -0.951057 -0.309017 0
    outer loop
      vertex 23.8033 33.8712 -0.1
      vertex 23.2219 35.6606 1.9
      vertex 23.2219 35.6606 -0.1
    endloop
  endfacet
  facet normal -0.951057 -0.309017 0
    outer loop
      vertex 23.2219 35.6606 1.9
      vertex 23.8033 33.8712 -0.1
      vertex 23.8033 33.8712 1.9
    endloop
  endfacet
  facet normal -0.406737 -0.913545 0
    outer loop
      vertex 17.7812 40.5595 -0.1
      vertex 19.5 39.7942 1.9
      vertex 17.7812 40.5595 1.9
    endloop
  endfacet
  facet normal -0.406737 -0.913545 -0
    outer loop
      vertex 19.5 39.7942 1.9
      vertex 17.7812 40.5595 -0.1
      vertex 19.5 39.7942 -0.1
    endloop
  endfacet
  facet normal -0.207912 -0.978147 0
    outer loop
      vertex 15.9408 40.9507 -0.1
      vertex 17.7812 40.5595 1.9
      vertex 15.9408 40.9507 1.9
    endloop
  endfacet
  facet normal -0.207912 -0.978147 -0
    outer loop
      vertex 17.7812 40.5595 1.9
      vertex 15.9408 40.9507 -0.1
      vertex 17.7812 40.5595 -0.1
    endloop
  endfacet
  facet normal -0.587785 -0.809018 0
    outer loop
      vertex 19.5 39.7942 -0.1
      vertex 21.0222 38.6883 1.9
      vertex 19.5 39.7942 1.9
    endloop
  endfacet
  facet normal -0.587785 -0.809018 -0
    outer loop
      vertex 21.0222 38.6883 1.9
      vertex 19.5 39.7942 -0.1
      vertex 21.0222 38.6883 -0.1
    endloop
  endfacet
  facet normal 0.951057 -0.309017 0
    outer loop
      vertex 6.19667 33.8712 1.9
      vertex 6.77809 35.6606 -0.1
      vertex 6.77809 35.6606 1.9
    endloop
  endfacet
  facet normal 0.951057 -0.309017 0
    outer loop
      vertex 6.77809 35.6606 -0.1
      vertex 6.19667 33.8712 1.9
      vertex 6.19667 33.8712 -0.1
    endloop
  endfacet
  facet normal 0.866025 -0.5 0
    outer loop
      vertex 6.77809 35.6606 1.9
      vertex 7.71885 37.2901 -0.1
      vertex 7.71885 37.2901 1.9
    endloop
  endfacet
  facet normal 0.866025 -0.5 0
    outer loop
      vertex 7.71885 37.2901 -0.1
      vertex 6.77809 35.6606 1.9
      vertex 6.77809 35.6606 -0.1
    endloop
  endfacet
  facet normal 0.994522 -0.104528 0
    outer loop
      vertex 6 32 1.9
      vertex 6.19667 33.8712 -0.1
      vertex 6.19667 33.8712 1.9
    endloop
  endfacet
  facet normal 0.994522 -0.104528 0
    outer loop
      vertex 6.19667 33.8712 -0.1
      vertex 6 32 1.9
      vertex 6 32 -0.1
    endloop
  endfacet
  facet normal 0.587784 -0.809018 0
    outer loop
      vertex 8.97782 38.6883 -0.1
      vertex 10.5 39.7942 1.9
      vertex 8.97782 38.6883 1.9
    endloop
  endfacet
  facet normal 0.587784 -0.809018 0
    outer loop
      vertex 10.5 39.7942 1.9
      vertex 8.97782 38.6883 -0.1
      vertex 10.5 39.7942 -0.1
    endloop
  endfacet
  facet normal 0.207912 -0.978147 0
    outer loop
      vertex 12.2188 40.5595 -0.1
      vertex 14.0592 40.9507 1.9
      vertex 12.2188 40.5595 1.9
    endloop
  endfacet
  facet normal 0.207912 -0.978147 0
    outer loop
      vertex 14.0592 40.9507 1.9
      vertex 12.2188 40.5595 -0.1
      vertex 14.0592 40.9507 -0.1
    endloop
  endfacet
  facet normal -0.207911 0.978148 0
    outer loop
      vertex 17.7812 23.4405 -0.1
      vertex 15.9408 23.0493 1.9
      vertex 17.7812 23.4405 1.9
    endloop
  endfacet
  facet normal -0.207911 0.978148 0
    outer loop
      vertex 15.9408 23.0493 1.9
      vertex 17.7812 23.4405 -0.1
      vertex 15.9408 23.0493 -0.1
    endloop
  endfacet
  facet normal -0.587786 0.809017 0
    outer loop
      vertex 21.0222 25.3117 -0.1
      vertex 19.5 24.2058 1.9
      vertex 21.0222 25.3117 1.9
    endloop
  endfacet
  facet normal -0.587786 0.809017 0
    outer loop
      vertex 19.5 24.2058 1.9
      vertex 21.0222 25.3117 -0.1
      vertex 19.5 24.2058 -0.1
    endloop
  endfacet
  facet normal 0.587786 0.809017 -0
    outer loop
      vertex 10.5 24.2058 -0.1
      vertex 8.97782 25.3117 1.9
      vertex 10.5 24.2058 1.9
    endloop
  endfacet
  facet normal 0.587786 0.809017 0
    outer loop
      vertex 8.97782 25.3117 1.9
      vertex 10.5 24.2058 -0.1
      vertex 8.97782 25.3117 -0.1
    endloop
  endfacet
  facet normal 0.207911 0.978148 -0
    outer loop
      vertex 14.0592 23.0493 -0.1
      vertex 12.2188 23.4405 1.9
      vertex 14.0592 23.0493 1.9
    endloop
  endfacet
  facet normal 0.207911 0.978148 0
    outer loop
      vertex 12.2188 23.4405 1.9
      vertex 14.0592 23.0493 -0.1
      vertex 12.2188 23.4405 -0.1
    endloop
  endfacet
  facet normal 0.743145 0.669131 0
    outer loop
      vertex 8.97782 25.3117 1.9
      vertex 7.71885 26.7099 -0.1
      vertex 7.71885 26.7099 1.9
    endloop
  endfacet
  facet normal 0.743145 0.669131 0
    outer loop
      vertex 7.71885 26.7099 -0.1
      vertex 8.97782 25.3117 1.9
      vertex 8.97782 25.3117 -0.1
    endloop
  endfacet
  facet normal 0.951057 0.309017 0
    outer loop
      vertex 6.77809 28.3394 1.9
      vertex 6.19667 30.1288 -0.1
      vertex 6.19667 30.1288 1.9
    endloop
  endfacet
  facet normal 0.951057 0.309017 0
    outer loop
      vertex 6.19667 30.1288 -0.1
      vertex 6.77809 28.3394 1.9
      vertex 6.77809 28.3394 -0.1
    endloop
  endfacet
  facet normal 0.994522 0.104528 0
    outer loop
      vertex 6.19667 30.1288 1.9
      vertex 6 32 -0.1
      vertex 6 32 1.9
    endloop
  endfacet
  facet normal 0.994522 0.104528 0
    outer loop
      vertex 6 32 -0.1
      vertex 6.19667 30.1288 1.9
      vertex 6.19667 30.1288 -0.1
    endloop
  endfacet
  facet normal -0.406736 0.913546 0
    outer loop
      vertex 19.5 24.2058 -0.1
      vertex 17.7812 23.4405 1.9
      vertex 19.5 24.2058 1.9
    endloop
  endfacet
  facet normal -0.406736 0.913546 0
    outer loop
      vertex 17.7812 23.4405 1.9
      vertex 19.5 24.2058 -0.1
      vertex 17.7812 23.4405 -0.1
    endloop
  endfacet
  facet normal -0.743145 0.669131 0
    outer loop
      vertex 21.0222 25.3117 -0.1
      vertex 22.2812 26.7099 1.9
      vertex 22.2812 26.7099 -0.1
    endloop
  endfacet
  facet normal -0.743145 0.669131 0
    outer loop
      vertex 22.2812 26.7099 1.9
      vertex 21.0222 25.3117 -0.1
      vertex 21.0222 25.3117 1.9
    endloop
  endfacet
  facet normal -0.951057 0.309017 0
    outer loop
      vertex 23.2219 28.3394 -0.1
      vertex 23.8033 30.1288 1.9
      vertex 23.8033 30.1288 -0.1
    endloop
  endfacet
  facet normal -0.951057 0.309017 0
    outer loop
      vertex 23.8033 30.1288 1.9
      vertex 23.2219 28.3394 -0.1
      vertex 23.2219 28.3394 1.9
    endloop
  endfacet
  facet normal -0.994522 0.104529 0
    outer loop
      vertex 23.8033 30.1288 -0.1
      vertex 24 32 1.9
      vertex 24 32 -0.1
    endloop
  endfacet
  facet normal -0.994522 0.104529 0
    outer loop
      vertex 24 32 1.9
      vertex 23.8033 30.1288 -0.1
      vertex 23.8033 30.1288 1.9
    endloop
  endfacet
  facet normal 0.406736 0.913546 -0
    outer loop
      vertex 12.2188 23.4405 -0.1
      vertex 10.5 24.2058 1.9
      vertex 12.2188 23.4405 1.9
    endloop
  endfacet
  facet normal 0.406736 0.913546 0
    outer loop
      vertex 10.5 24.2058 1.9
      vertex 12.2188 23.4405 -0.1
      vertex 10.5 24.2058 -0.1
    endloop
  endfacet
  facet normal 0 1 -0
    outer loop
      vertex 15.9408 23.0493 -0.1
      vertex 14.0592 23.0493 1.9
      vertex 15.9408 23.0493 1.9
    endloop
  endfacet
  facet normal 0 1 0
    outer loop
      vertex 14.0592 23.0493 1.9
      vertex 15.9408 23.0493 -0.1
      vertex 14.0592 23.0493 -0.1
    endloop
  endfacet
  facet normal 0.866026 0.5 0
    outer loop
      vertex 7.71885 26.7099 1.9
      vertex 6.77809 28.3394 -0.1
      vertex 6.77809 28.3394 1.9
    endloop
  endfacet
  facet normal 0.866026 0.5 0
    outer loop
      vertex 6.77809 28.3394 -0.1
      vertex 7.71885 26.7099 1.9
      vertex 7.71885 26.7099 -0.1
    endloop
  endfacet
  facet normal 1 -0 0
    outer loop
      vertex 24.2 27 1.9
      vertex 24.2 47 -0.1
      vertex 24.2 47 1.9
    endloop
  endfacet
  facet normal 1 0 0
    outer loop
      vertex 24.2 47 -0.1
      vertex 24.2 27 1.9
      vertex 24.2 27 -0.1
    endloop
  endfacet
  facet normal -1 0 0
    outer loop
      vertex 26.4 27 -0.1
      vertex 26.4 47 1.9
      vertex 26.4 47 -0.1
    endloop
  endfacet
  facet normal -1 -0 0
    outer loop
      vertex 26.4 47 1.9
      vertex 26.4 27 -0.1
      vertex 26.4 27 1.9
    endloop
  endfacet
  facet normal 0 -1 0
    outer loop
      vertex 24.2 47 -0.1
      vertex 26.4 47 1.9
      vertex 24.2 47 1.9
    endloop
  endfacet
  facet normal 0 -1 -0
    outer loop
      vertex 26.4 47 1.9
      vertex 24.2 47 -0.1
      vertex 26.4 47 -0.1
    endloop
  endfacet
  facet normal 0 1 -0
    outer loop
      vertex 26.4 27 -0.1
      vertex 24.2 27 1.9
      vertex 26.4 27 1.9
    endloop
  endfacet
  facet normal 0 1 0
    outer loop
      vertex 24.2 27 1.9
      vertex 26.4 27 -0.1
      vertex 24.2 27 -0.1
    endloop
  endfacet
  facet normal 1 -0 0
    outer loop
      vertex 3.6 27 1.9
      vertex 3.6 47 -0.1
      vertex 3.6 47 1.9
    endloop
  endfacet
  facet normal 1 0 0
    outer loop
      vertex 3.6 47 -0.1
      vertex 3.6 27 1.9
      vertex 3.6 27 -0.1
    endloop
  endfacet
  facet normal -1 0 0
    outer loop
      vertex 5.8 27 -0.1
      vertex 5.8 47 1.9
      vertex 5.8 47 -0.1
    endloop
  endfacet
  facet normal -1 -0 0
    outer loop
      vertex 5.8 47 1.9
      vertex 5.8 27 -0.1
      vertex 5.8 27 1.9
    endloop
  endfacet
  facet normal 0 -1 0
    outer loop
      vertex 3.6 47 -0.1
      vertex 5.8 47 1.9
      vertex 3.6 47 1.9
    endloop
  endfacet
  facet normal 0 -1 -0
    outer loop
      vertex 5.8 47 1.9
      vertex 3.6 47 -0.1
      vertex 5.8 47 -0.1
    endloop
  endfacet
  facet normal 0 1 -0
    outer loop
      vertex 5.8 27 -0.1
      vertex 3.6 27 1.9
      vertex 5.8 27 1.9
    endloop
  endfacet
  facet normal 0 1 0
    outer loop
      vertex 3.6 27 1.9
      vertex 5.8 27 -0.1
      vertex 3.6 27 -0.1
    endloop
  endfacet
  facet normal 1 -0 0
    outer loop
      vertex 9 71 1.9
      vertex 9 77 -0.1
      vertex 9 77 1.9
    endloop
  endfacet
  facet normal 1 0 0
    outer loop
      vertex 9 77 -0.1
      vertex 9 71 1.9
      vertex 9 71 -0.1
    endloop
  endfacet
  facet normal -1 0 0
    outer loop
      vertex 27 71 -0.1
      vertex 27 111 1.9
      vertex 27 111 -0.1
    endloop
  endfacet
  facet normal -1 -0 0
    outer loop
      vertex 27 111 1.9
      vertex 27 71 -0.1
      vertex 27 71 1.9
    endloop
  endfacet
  facet normal 0 1 -0
    outer loop
      vertex 27 71 -0.1
      vertex 9 71 1.9
      vertex 27 71 1.9
    endloop
  endfacet
  facet normal 0 1 0
    outer loop
      vertex 9 71 1.9
      vertex 27 71 -0.1
      vertex 9 71 -0.1
    endloop
  endfacet
  facet normal 1 -0 0
    outer loop
      vertex 3 77 1.9
      vertex 3 117 -0.1
      vertex 3 117 1.9
    endloop
  endfacet
  facet normal 1 0 0
    outer loop
      vertex 3 117 -0.1
      vertex 3 77 1.9
      vertex 3 77 -0.1
    endloop
  endfacet
  facet normal 0 -1 0
    outer loop
      vertex 21.1 111 -0.1
      vertex 27 111 1.9
      vertex 21.1 111 1.9
    endloop
  endfacet
  facet normal 0 -1 -0
    outer loop
      vertex 27 111 1.9
      vertex 21.1 111 -0.1
      vertex 27 111 -0.1
    endloop
  endfacet
  facet normal 0 1 -0
    outer loop
      vertex 9 77 -0.1
      vertex 3 77 1.9
      vertex 9 77 1.9
    endloop
  endfacet
  facet normal 0 1 0
    outer loop
      vertex 3 77 1.9
      vertex 9 77 -0.1
      vertex 3 77 -0.1
    endloop
  endfacet
  facet normal -1 0 0
    outer loop
      vertex 21.1 111 -0.1
      vertex 21.1 117 1.9
      vertex 21.1 117 -0.1
    endloop
  endfacet
  facet normal -1 -0 0
    outer loop
      vertex 21.1 117 1.9
      vertex 21.1 111 -0.1
      vertex 21.1 111 1.9
    endloop
  endfacet
  facet normal 0 -1 0
    outer loop
      vertex 3 117 -0.1
      vertex 21.1 117 1.9
      vertex 3 117 1.9
    endloop
  endfacet
  facet normal 0 -1 -0
    outer loop
      vertex 21.1 117 1.9
      vertex 3 117 -0.1
      vertex 21.1 117 -0.1
    endloop
  endfacet
endsolid OpenSCAD_Model
